<svg xmlns="http://www.w3.org/2000/svg" width="1000" height="760" viewBox="0 0 1000 760">
<defs>
<marker id="arrow" viewBox="0 0 10 10" refX="9" refY="5" markerWidth="7" markerHeight="7" orient="auto-start-reverse">
<path d="M 0 0 L 10 5 L 0 10 z" fill="context-stroke" />
</marker>
</defs>
<rect width="100%" height="100%" fill="#ffffff" />
<text x="24" y="34" font-size="22" font-family="Arial, sans-serif" font-weight="700">任务层路径图</text>
<line x1="24" y1="58" x2="52" y2="58" stroke="#1f77b4" stroke-width="4" />
<text x="60" y="63" font-size="14" font-family="Arial, sans-serif" fill="#222222">车1-架次1: [3, 4]</text>
<line x1="24" y1="80" x2="52" y2="80" stroke="#d62728" stroke-width="4" />
<text x="60" y="85" font-size="14" font-family="Arial, sans-serif" fill="#222222">车1-架次2: [1, 2]</text>
<line x1="106.216" y1="690.0" x2="340.811" y2="120.27" stroke="#1f77b4" stroke-width="3" opacity="0.82" marker-end="url(#arrow)" />
<line x1="340.811" y1="120.27" x2="893.784" y2="70.0" stroke="#1f77b4" stroke-width="3" opacity="0.82" marker-end="url(#arrow)" />
<line x1="893.784" y1="70.0" x2="106.216" y2="690.0" stroke="#1f77b4" stroke-width="3" opacity="0.82" marker-end="url(#arrow)" />
<line x1="106.216" y1="690.0" x2="541.892" y2="622.973" stroke="#d62728" stroke-width="3" opacity="0.82" marker-end="url(#arrow)" />
<line x1="541.892" y1="622.973" x2="458.108" y2="388.378" stroke="#d62728" stroke-width="3" opacity="0.82" marker-end="url(#arrow)" />
<line x1="458.108" y1="388.378" x2="106.216" y2="690.0" stroke="#d62728" stroke-width="3" opacity="0.82" marker-end="url(#arrow)" />
<rect x="98.216" y="682.0" width="16" height="16" fill="#111111" />
<text x="116.216" y="695.0" font-size="15" font-family="Arial, sans-serif">0</text>
<circle cx="541.892" cy="622.973" r="8" fill="#ffffff" stroke="#111111" stroke-width="2" />
<text x="551.892" y="627.973" font-size="14" font-family="Arial, sans-serif">1</text>
<circle cx="458.108" cy="388.378" r="8" fill="#ffffff" stroke="#111111" stroke-width="2" />
<text x="468.108" y="393.378" font-size="14" font-family="Arial, sans-serif">2</text>
<circle cx="340.811" cy="120.27" r="8" fill="#ffffff" stroke="#111111" stroke-width="2" />
<text x="350.811" y="125.27" font-size="14" font-family="Arial, sans-serif">3</text>
<circle cx="893.784" cy="70.0" r="8" fill="#ffffff" stroke="#111111" stroke-width="2" />
<text x="903.784" y="75.0" font-size="14" font-family="Arial, sans-serif">4</text>
</svg>
