<svg xmlns="http://www.w3.org/2000/svg" width="1000" height="760" viewBox="0 0 1000 760">
<defs>
<marker id="arrow" viewBox="0 0 10 10" refX="9" refY="5" markerWidth="7" markerHeight="7" orient="auto-start-reverse">
<path d="M 0 0 L 10 5 L 0 10 z" fill="context-stroke" />
</marker>
</defs>
<rect width="100%" height="100%" fill="#ffffff" />
<text x="24" y="34" font-size="22" font-family="Arial, sans-serif" font-weight="700">底层地形路径图</text>
<line x1="24" y1="58" x2="52" y2="58" stroke="#1f77b4" stroke-width="4" />
<text x="60" y="63" font-size="14" font-family="Arial, sans-serif" fill="#222222">车1-架次1: [3, 4]</text>
<line x1="24" y1="80" x2="52" y2="80" stroke="#d62728" stroke-width="4" />
<text x="60" y="85" font-size="14" font-family="Arial, sans-serif" fill="#222222">车1-架次2: [1, 2]</text>
<line x1="168.864" y1="690.0" x2="337.955" y2="591.364" stroke="#d4d4d4" stroke-width="1" />
<line x1="168.864" y1="690.0" x2="281.591" y2="408.182" stroke="#d4d4d4" stroke-width="1" />
<line x1="337.955" y1="591.364" x2="535.227" y2="633.636" stroke="#d4d4d4" stroke-width="1" />
<line x1="337.955" y1="591.364" x2="464.773" y2="436.364" stroke="#d4d4d4" stroke-width="1" />
<line x1="535.227" y1="633.636" x2="704.318" y2="492.727" stroke="#d4d4d4" stroke-width="1" />
<line x1="535.227" y1="633.636" x2="464.773" y2="436.364" stroke="#d4d4d4" stroke-width="1" />
<line x1="281.591" y1="408.182" x2="464.773" y2="436.364" stroke="#d4d4d4" stroke-width="1" />
<line x1="281.591" y1="408.182" x2="366.136" y2="210.909" stroke="#d4d4d4" stroke-width="1" />
<line x1="464.773" y1="436.364" x2="704.318" y2="492.727" stroke="#d4d4d4" stroke-width="1" />
<line x1="464.773" y1="436.364" x2="619.773" y2="267.273" stroke="#d4d4d4" stroke-width="1" />
<line x1="704.318" y1="492.727" x2="619.773" y2="267.273" stroke="#d4d4d4" stroke-width="1" />
<line x1="704.318" y1="492.727" x2="831.136" y2="168.636" stroke="#d4d4d4" stroke-width="1" />
<line x1="366.136" y1="210.909" x2="619.773" y2="267.273" stroke="#d4d4d4" stroke-width="1" />
<line x1="366.136" y1="210.909" x2="197.045" y2="70.0" stroke="#d4d4d4" stroke-width="1" />
<line x1="619.773" y1="267.273" x2="831.136" y2="168.636" stroke="#d4d4d4" stroke-width="1" />
<line x1="619.773" y1="267.273" x2="197.045" y2="70.0" stroke="#d4d4d4" stroke-width="1" />
<circle cx="168.864" cy="690.0" r="2.5" fill="#777777"><title>p0</title></circle>
<circle cx="337.955" cy="591.364" r="2.5" fill="#777777"><title>p1</title></circle>
<circle cx="535.227" cy="633.636" r="2.5" fill="#777777"><title>p2</title></circle>
<circle cx="281.591" cy="408.182" r="2.5" fill="#777777"><title>p3</title></circle>
<circle cx="464.773" cy="436.364" r="2.5" fill="#777777"><title>p4</title></circle>
<circle cx="704.318" cy="492.727" r="2.5" fill="#777777"><title>p5</title></circle>
<circle cx="366.136" cy="210.909" r="2.5" fill="#777777"><title>p6</title></circle>
<circle cx="619.773" cy="267.273" r="2.5" fill="#777777"><title>p7</title></circle>
<circle cx="831.136" cy="168.636" r="2.5" fill="#777777"><title>p8</title></circle>
<circle cx="197.045" cy="70.0" r="2.5" fill="#777777"><title>p9</title></circle>
<line x1="168.864" y1="690.0" x2="281.591" y2="408.182" stroke="#1f77b4" stroke-width="4" opacity="0.82" />
<line x1="281.591" y1="408.182" x2="366.136" y2="210.909" stroke="#1f77b4" stroke-width="4" opacity="0.82" />
<line x1="366.136" y1="210.909" x2="619.773" y2="267.273" stroke="#1f77b4" stroke-width="4" opacity="0.82" />
<line x1="619.773" y1="267.273" x2="831.136" y2="168.636" stroke="#1f77b4" stroke-width="4" opacity="0.82" />
<line x1="831.136" y1="168.636" x2="619.773" y2="267.273" stroke="#1f77b4" stroke-width="4" opacity="0.82" />
<line x1="619.773" y1="267.273" x2="464.773" y2="436.364" stroke="#1f77b4" stroke-width="4" opacity="0.82" />
<line x1="464.773" y1="436.364" x2="337.955" y2="591.364" stroke="#1f77b4" stroke-width="4" opacity="0.82" />
<line x1="337.955" y1="591.364" x2="168.864" y2="690.0" stroke="#1f77b4" stroke-width="4" opacity="0.82" />
<line x1="168.864" y1="690.0" x2="337.955" y2="591.364" stroke="#d62728" stroke-width="4" opacity="0.82" />
<line x1="337.955" y1="591.364" x2="535.227" y2="633.636" stroke="#d62728" stroke-width="4" opacity="0.82" />
<line x1="535.227" y1="633.636" x2="464.773" y2="436.364" stroke="#d62728" stroke-width="4" opacity="0.82" />
<line x1="464.773" y1="436.364" x2="337.955" y2="591.364" stroke="#d62728" stroke-width="4" opacity="0.82" />
<line x1="337.955" y1="591.364" x2="168.864" y2="690.0" stroke="#d62728" stroke-width="4" opacity="0.82" />
<rect x="160.864" y="682.0" width="16" height="16" fill="#111111" />
<text x="178.864" y="695.0" font-size="15" font-family="Arial, sans-serif">0</text>
<circle cx="535.227" cy="633.636" r="8" fill="#ffffff" stroke="#111111" stroke-width="2" />
<text x="545.227" y="638.636" font-size="14" font-family="Arial, sans-serif">1</text>
<circle cx="464.773" cy="436.364" r="8" fill="#ffffff" stroke="#111111" stroke-width="2" />
<text x="474.773" y="441.364" font-size="14" font-family="Arial, sans-serif">2</text>
<circle cx="366.136" cy="210.909" r="8" fill="#ffffff" stroke="#111111" stroke-width="2" />
<text x="376.136" y="215.909" font-size="14" font-family="Arial, sans-serif">3</text>
<circle cx="831.136" cy="168.636" r="8" fill="#ffffff" stroke="#111111" stroke-width="2" />
<text x="841.136" y="173.636" font-size="14" font-family="Arial, sans-serif">4</text>
</svg>
